<svg width="20" height="20" viewBox="0 0 20 20" fill="none" xmlns="http://www.w3.org/2000/svg">
<g filter="url(#filter0_ii_14581_106175)">
<path d="M9.08929 19.0511C9.08745 15.8288 8.61874 13.8881 7.51208 12.7118C6.41806 11.549 4.48233 10.9082 0.908166 10.9082C0.406343 10.9082 0.000425095 10.5017 0 10C0 9.49792 0.406081 9.08929 0.908166 9.08929C4.48237 9.08929 6.41806 8.44852 7.51208 7.28568C8.61848 6.10929 9.0875 4.16849 9.08929 0.946324C9.0893 0.933794 9.0893 0.920729 9.08929 0.908166C9.08958 0.406284 9.49812 0 10 0C10.5015 0.000424937 10.9079 0.406546 10.9082 0.908166C10.9082 0.921393 10.9082 0.93567 10.9082 0.948868C10.9102 4.16934 11.3795 6.1095 12.4854 7.28568C13.5793 8.44842 15.5157 9.08917 19.0893 9.08929C19.5914 9.08929 20 9.49792 20 10C19.9996 10.5017 19.5911 10.9082 19.0893 10.9082C15.5157 10.9083 13.5793 11.549 12.4854 12.7118C11.379 13.8881 10.91 15.8292 10.9082 19.0511C10.9082 19.0638 10.9082 19.0791 10.9082 19.0918C10.9073 19.593 10.5012 19.9996 10 20C9.49847 20 9.09014 19.5932 9.08929 19.0918C9.0893 19.0791 9.0893 19.0638 9.08929 19.0511Z" fill="white"/>
<path d="M9.08929 19.0511C9.08745 15.8288 8.61874 13.8881 7.51208 12.7118C6.41806 11.549 4.48233 10.9082 0.908166 10.9082C0.406343 10.9082 0.000425095 10.5017 0 10C0 9.49792 0.406081 9.08929 0.908166 9.08929C4.48237 9.08929 6.41806 8.44852 7.51208 7.28568C8.61848 6.10929 9.0875 4.16849 9.08929 0.946324C9.0893 0.933794 9.0893 0.920729 9.08929 0.908166C9.08958 0.406284 9.49812 0 10 0C10.5015 0.000424937 10.9079 0.406546 10.9082 0.908166C10.9082 0.921393 10.9082 0.93567 10.9082 0.948868C10.9102 4.16934 11.3795 6.1095 12.4854 7.28568C13.5793 8.44842 15.5157 9.08917 19.0893 9.08929C19.5914 9.08929 20 9.49792 20 10C19.9996 10.5017 19.5911 10.9082 19.0893 10.9082C15.5157 10.9083 13.5793 11.549 12.4854 12.7118C11.379 13.8881 10.91 15.8292 10.9082 19.0511C10.9082 19.0638 10.9082 19.0791 10.9082 19.0918C10.9073 19.593 10.5012 19.9996 10 20C9.49847 20 9.09014 19.5932 9.08929 19.0918C9.0893 19.0791 9.0893 19.0638 9.08929 19.0511Z" fill="#FF4E4F"/>
</g>
<defs>
<filter id="filter0_ii_14581_106175" x="0" y="0" width="20" height="20.9275" filterUnits="userSpaceOnUse" color-interpolation-filters="sRGB">
<feFlood flood-opacity="0" result="BackgroundImageFix"/>
<feBlend mode="normal" in="SourceGraphic" in2="BackgroundImageFix" result="shape"/>
<feColorMatrix in="SourceAlpha" type="matrix" values="0 0 0 0 0 0 0 0 0 0 0 0 0 0 0 0 0 0 127 0" result="hardAlpha"/>
<feOffset dy="0.463766"/>
<feGaussianBlur stdDeviation="0.454035"/>
<feComposite in2="hardAlpha" operator="arithmetic" k2="-1" k3="1"/>
<feColorMatrix type="matrix" values="0 0 0 0 1 0 0 0 0 1 0 0 0 0 1 0 0 0 0.5 0"/>
<feBlend mode="normal" in2="shape" result="effect1_innerShadow_14581_106175"/>
<feColorMatrix in="SourceAlpha" type="matrix" values="0 0 0 0 0 0 0 0 0 0 0 0 0 0 0 0 0 0 127 0" result="hardAlpha"/>
<feOffset dy="0.927531"/>
<feGaussianBlur stdDeviation="1.51345"/>
<feComposite in2="hardAlpha" operator="arithmetic" k2="-1" k3="1"/>
<feColorMatrix type="matrix" values="0 0 0 0 1 0 0 0 0 1 0 0 0 0 1 0 0 0 0.5 0"/>
<feBlend mode="normal" in2="effect1_innerShadow_14581_106175" result="effect2_innerShadow_14581_106175"/>
</filter>
</defs>
</svg>
